<svg aria-hidden="true" style="position: absolute; width: 0; height: 0; overflow: hidden;" version="1.1" xmlns="http://www.w3.org/2000/svg" xmlns:xlink="http://www.w3.org/1999/xlink">
  <defs>
   
<symbol id="icon-heart-circle" viewBox="0 0 32 32">
<path d="M15.991 7.561c-2.559-3.022-6.827-3.834-10.033-1.068s-3.658 7.393-1.14 10.665c1.613 2.096 5.743 5.983 8.505 8.506 0.918 0.839 1.376 1.258 1.926 1.426 0.472 0.145 1.012 0.145 1.485 0 0.55-0.168 1.008-0.587 1.926-1.426 2.761-2.524 6.892-6.41 8.505-8.507 2.518-3.272 2.122-7.928-1.14-10.665s-7.474-1.954-10.033 1.068z"></path>
</symbol>

<symbol id="icon-four" viewBox="0 0 23 32">
<path fill="#fff" d="M13.815 32v-4.943H0v-5.606L10.019.221h6.886L6.886 21.451h6.93v-7.945h6.091v7.945h2.825v5.606h-2.825V32h-6.091z" style="fill:var(--color1, #fff)"/>
</symbol>

<symbol id="icon-shape-pc" viewBox="0 0 28 32">
<path fill="#fff" d="M.093 6.19C-.39 2.394 3.064-.717 6.789.159L24.017 4.21a5.484 5.484 0 0 1 4.035 6.784l-2.176 7.961a11.93 11.93 0 0 0-.422 3.144v6.182c0 3.89-3.937 6.543-7.543 5.083L3.605 27.571A5.484 5.484 0 0 1 .19 22.149l.549-8.856c.056-.909.027-1.822-.088-2.725L.093 6.19z" opacity=".1" style="fill:var(--color1, #fff)"/>
</symbol>

<symbol id="icon-shape" viewBox="0 0 41 32">
<path fill="#fff" d="M.148 7.435C-.434 2.879 3.711-.858 8.183.191L36.015 6.72a6.585 6.585 0 0 1 4.847 8.15l-3.027 11.048a29.49 29.49 0 0 0-1.048 7.794v9.07c0 4.668-4.723 7.853-9.051 6.105L4.568 39.528a6.583 6.583 0 0 1-4.105-6.513l.755-12.158c.14-2.254.067-4.516-.219-6.756L.148 7.436z" opacity=".1" style="fill:var(--color1, #fff)"/>
</symbol>

<symbol id="icon-x-red" viewBox="0 0 32 32">
<path fill="none" stroke="#ef2447" stroke-linecap="round" stroke-linejoin="round" stroke-width="3" d="M24 8 8 24M8 8l16 16" style="stroke: #ef2447"/>
</symbol>

<symbol id="icon-check" viewBox="0 0 32 32">
<path fill="none" stroke="#08aa83" stroke-linecap="round" stroke-linejoin="round" stroke-width="2.667" d="M26.667 9.333 12 24l-6.667-6.667" style="stroke: #08aa83"/>
</symbol>

<symbol id="icon-eye" viewBox="0 0 32 32">
<path fill="none" stroke="#f6b83d" stroke-linecap="round" stroke-linejoin="round" stroke-width="2.909" d="M1.332 16S6.665 5.333 15.999 5.333 30.666 16 30.666 16s-5.333 10.667-14.667 10.667C6.666 26.667 1.332 16 1.332 16z" style="stroke:var(--color1, #f6b83d)"/>
<path fill="none" stroke="#f6b83d" stroke-linecap="round" stroke-linejoin="round" stroke-width="2.909" d="M16 20a4 4 0 1 0 0-8 4 4 0 0 0 0 8z" style="stroke:var(--color1, #f6b83d)"/>
</symbol>

<symbol id="icon-eye-off" viewBox="0 0 32 32">
<path fill="none" stroke="#f6b83d" stroke-linecap="round" stroke-linejoin="round" stroke-width="2.667" d="M23.92 23.92A13.43 13.43 0 0 1 16 26.667C6.667 26.667 1.333 16 1.333 16A24.605 24.605 0 0 1 8.08 8.08m5.12-2.427a12.161 12.161 0 0 1 2.8-.32C25.333 5.333 30.667 16 30.667 16a24.646 24.646 0 0 1-2.88 4.253m-8.96-1.426a4.01 4.01 0 0 1-2.855 1.273 3.987 3.987 0 0 1-3.779-2.502 3.995 3.995 0 0 1 .983-4.424M1.333 1.333l29.333 29.333" style="stroke:var(--color1, #f6b83d)"/>
</symbol>

<symbol id="icon-shape" viewBox="0 0 41 32">
<path fill="#fff" d="M.148 7.435C-.434 2.879 3.711-.858 8.183.191L36.015 6.72a6.585 6.585 0 0 1 4.847 8.15l-3.027 11.048a29.49 29.49 0 0 0-1.048 7.794v9.07c0 4.668-4.723 7.853-9.051 6.105L4.568 39.528a6.583 6.583 0 0 1-4.105-6.513l.755-12.158c.14-2.254.067-4.516-.219-6.756L.148 7.436z" opacity=".1" style="fill:var(--color1, #fff)"/>
</symbol>

<symbol id="icon-shape-pc" viewBox="0 0 28 32">
<path fill="#fff" d="M.093 6.19C-.39 2.394 3.064-.717 6.789.159L24.017 4.21a5.484 5.484 0 0 1 4.035 6.784l-2.176 7.961a11.93 11.93 0 0 0-.422 3.144v6.182c0 3.89-3.937 6.543-7.543 5.083L3.605 27.571A5.484 5.484 0 0 1 .19 22.149l.549-8.856c.056-.909.027-1.822-.088-2.725L.093 6.19z" opacity=".1" style="fill:var(--color1, #fff)"/>
</symbol>

<symbol id="icon-female" viewBox="0 0 32 32">
<path stroke-linecap="round" stroke-linejoin="round" stroke-width="2.4" d="M16.001 17.333a6.667 6.667 0 1 0 0-13.334 6.667 6.667 0 0 0 0 13.334zm0 0V28m-4-4h8"/>
</symbol>

<symbol id="icon-male" viewBox="0 0 18 32">
<path stroke-linecap="round" stroke-linejoin="round" stroke-width="2.667" d="M8.89 14.519a7.407 7.407 0 1 0 0 14.814 7.407 7.407 0 1 0 0-14.814zm0 0V2.667m0 0 5.926 5.926M8.89 2.667 2.964 8.593"/>
</symbol>

<symbol id="icon-sex" viewBox="0 0 32 32">
<path d="M11.694 10.327a4.665 4.665 0 1 0 2.913 3.635.654.654 0 0 1 .313-.672.653.653 0 0 1 .504-.078.654.654 0 0 1 .412.302.653.653 0 0 1 .089.244 5.993 5.993 0 0 1-3.514 6.403 5.998 5.998 0 1 1-.232-11.077.665.665 0 0 1 .433.609.669.669 0 0 1-.403.628.665.665 0 0 1-.515.006z"/>
<path d="M9.331 26v-5.331a.665.665 0 1 1 1.332 0V26a.665.665 0 1 1-1.332 0z"/>
<path d="M7.331 22.668a.665.665 0 0 1 .666-.666h3.998a.665.665 0 1 1 0 1.332H7.997a.665.665 0 0 1-.666-.666zm11.93-12.486a4.665 4.665 0 0 0-5.9 5.04.67.67 0 0 1-.335.663.665.665 0 0 1-.989-.506 5.997 5.997 0 1 1 3.582 4.801.673.673 0 0 1-.355-.366.668.668 0 0 1 .883-.859 4.66 4.66 0 0 0 6.243-2.723 4.667 4.667 0 0 0-3.127-6.05z"/>
<path d="M21.855 11.477a.665.665 0 0 1 0-.942l4.998-4.998a.658.658 0 0 1 .473-.203.655.655 0 0 1 .477.196c.063.063.112.137.145.219s.05.17.05.258a.669.669 0 0 1-.203.473l-4.998 4.998a.665.665 0 0 1-.942 0z"/>
<path d="M27.273 10.007a.669.669 0 0 1-.657-.675l.033-2.648-2.648.033a.67.67 0 0 1-.675-.658.67.67 0 0 1 .658-.675L28 5.333l-.051 4.016a.669.669 0 0 1-.675.657z"/>
</symbol>

<symbol id="icon-footprint" viewBox="0 0 32 32">
<path fill="#f6b83d" d="M12.5 5c-1.07 0-2.002.608-2.594 1.438S9 8.34 9 9.5s.314 2.233.906 3.063S11.43 14 12.5 14c1.07 0 2.002-.608 2.594-1.438S16 10.66 16 9.5s-.314-2.233-.906-3.063S13.57 5 12.5 5zM16 9.5c0 1.16.314 2.233.906 3.063S18.431 14 19.5 14c1.07 0 2.002-.608 2.594-1.438S23 10.66 23 9.5s-.314-2.233-.906-3.063S20.57 5 19.5 5c-1.07 0-2.002.608-2.594 1.438S16 8.34 16 9.5zM12.5 7c.312 0 .656.156.97.594.31.437.53 1.133.53 1.906s-.22 1.47-.53 1.906c-.314.438-.658.594-.97.594s-.656-.156-.97-.594c-.31-.437-.53-1.133-.53-1.906s.22-1.47.53-1.906c.314-.438.658-.594.97-.594zm7 0c.312 0 .656.156.97.594.31.437.53 1.133.53 1.906s-.22 1.47-.53 1.906c-.314.438-.658.594-.97.594s-.656-.156-.97-.594c-.31-.437-.53-1.133-.53-1.906s.22-1.47.53-1.906c.314-.438.658-.594.97-.594zm-12 5c-1.07 0-2.002.608-2.594 1.438S4 15.34 4 16.5s.314 2.233.906 3.063S6.43 21 7.5 21c1.07 0 2.002-.608 2.594-1.438S11 17.66 11 16.5s-.314-2.233-.906-3.063S8.57 12 7.5 12zm17 0c-1.07 0-2.002.608-2.594 1.438S21 15.34 21 16.5s.314 2.233.906 3.063S23.43 21 24.5 21c1.07 0 2.002-.608 2.594-1.438S28 17.66 28 16.5s-.314-2.233-.906-3.063S25.57 12 24.5 12zm-17 2c.312 0 .656.156.97.594.31.437.53 1.133.53 1.906s-.22 1.47-.53 1.906c-.314.438-.658.594-.97.594s-.656-.156-.97-.594C6.22 17.97 6 17.273 6 16.5s.22-1.47.53-1.906c.314-.438.658-.594.97-.594zm17 0c.312 0 .656.156.97.594.31.437.53 1.133.53 1.906s-.22 1.47-.53 1.906c-.314.438-.658.594-.97.594s-.656-.156-.97-.594c-.31-.437-.53-1.133-.53-1.906s.22-1.47.53-1.906c.314-.438.658-.594.97-.594zM16 16c-1.333 0-2.263.865-2.72 1.625-.454.76-.734 1.392-1 1.656-.153.157-1.118.52-2.124 1.033-.503.257-1.01.6-1.437 1.125-.43.525-.72 1.25-.72 2.063 0 1.92 1.58 3.5 3.5 3.5.866 0 1.77-.28 2.655-.53C15.043 26.216 16 26 16 26s.957.216 1.844.47c.886.25 1.79.53 2.656.53 1.92 0 3.5-1.58 3.5-3.5 0-.794-.293-1.52-.72-2.03-.425-.513-.937-.83-1.436-1.095-1-.53-1.983-.95-2.125-1.094-.24-.237-.51-.89-.97-1.654C18.29 16.86 17.34 16 16 16zm0 2c.66 0 .733.16 1.03.656.3.495.524 1.336 1.25 2.063.825.82 1.867 1 2.626 1.404.38.202.67.417.844.625.173.207.25.396.25.75 0 .84-.66 1.5-1.5 1.5-.29 0-1.224-.22-2.094-.47-.87-.247-1.59-.53-2.406-.53s-1.536.283-2.406.53c-.87.25-1.804.47-2.094.47-.84 0-1.5-.66-1.5-1.5 0-.403.084-.61.25-.814.166-.203.472-.404.844-.593.744-.38 1.78-.53 2.625-1.375.733-.737.953-1.605 1.25-2.095.292-.49.362-.625 1.03-.625L16 18z" style="fill:var(--color3, #f6b83d)"/>
</symbol>

<symbol id="icon-upload-cloud" viewBox="0 0 32 32">
<path fill="none" stroke="#f6b83d" stroke-linecap="round" stroke-linejoin="round" stroke-width="2.311" d="M16 16v12M27.187 24.52a6.671 6.671 0 0 0 3.27-7.497A6.669 6.669 0 0 0 24.001 12h-1.68a10.659 10.659 0 0 0-10.72-7.99A10.657 10.657 0 0 0 3.38 8.378a10.661 10.661 0 0 0-1.66 9.159 10.656 10.656 0 0 0 2.281 4.196" style="stroke:var(--color1, #f6b83d)"/>
<path fill="none" stroke="#f6b83d" stroke-linecap="round" stroke-linejoin="round" stroke-width="2.311" d="M21.333 21.333 16 16l-5.333 5.333" style="stroke:var(--color1, #f6b83d)"/>
</symbol>

<symbol id="icon-calendar" viewBox="0 0 32 32">
<path stroke-linecap="round" stroke-linejoin="round" stroke-width="2.667" d="M25.333 5.333H6.666A2.667 2.667 0 0 0 3.999 8v18.667a2.667 2.667 0 0 0 2.667 2.667h18.667A2.667 2.667 0 0 0 28 26.667V8a2.667 2.667 0 0 0-2.667-2.667zM21.333 2.667V8M10.667 2.667V8M4 13.333h24"/>
</symbol>

<symbol id="icon-trash" viewBox="0 0 32 32">
<path stroke-linecap="round" stroke-linejoin="round" stroke-width="2.4" d="M4 8h24M25.335 8v18.667a2.668 2.668 0 0 1-2.667 2.667H9.335a2.668 2.668 0 0 1-2.667-2.667V8m4 0V5.333a2.668 2.668 0 0 1 2.667-2.667h5.333a2.67 2.67 0 0 1 2.667 2.667V8M13.332 14.667v8M18.668 14.667v8"/>
</symbol>

<symbol id="icon-heart" viewBox="0 0 32 32">
<path stroke-linecap="round" stroke-linejoin="round" stroke-width="2.667" d="M27.784 6.147a7.345 7.345 0 0 0-5.187-2.15 7.33 7.33 0 0 0-5.187 2.15L15.997 7.56l-1.413-1.413a7.333 7.333 0 0 0-10.374 0 7.333 7.333 0 0 0 0 10.374l11.787 11.787 11.787-11.787a7.345 7.345 0 0 0 2.15-5.187 7.33 7.33 0 0 0-2.15-5.187z"/>
</symbol>

<symbol id="icon-close" viewBox="0 0 32 32">
<path stroke-linecap="round" stroke-linejoin="round" stroke-width="3" d="M24 8 8 24M8 8l16 16"/>
</symbol>

<symbol id="icon-star" viewBox="0 0 32 32">
<path fill="#ffc531" stroke="#ffc531" stroke-width="2.4" d="M12.4 9.394 16 2.572l3.6 6.822a2.2 2.2 0 0 0 1.571 1.141l7.601 1.315-5.376 5.532a2.2 2.2 0 0 0-.6 1.846l1.098 7.635-6.922-3.404a2.199 2.199 0 0 0-1.941 0l-6.922 3.404 1.098-7.635a2.2 2.2 0 0 0-.6-1.846L3.231 11.85l7.601-1.315a2.202 2.202 0 0 0 1.571-1.141zm16.635 2.185zM7.767 27.031z" style="fill:var(--color1, #ffc531);stroke:var(--color1, #ffc531)"/>
</symbol>

<symbol id="icon-starGray" viewBox="0 0 32 32">
<path fill="#f4f4f4" stroke="#f4f4f4" stroke-width="2.4" d="M12.4 9.394 16 2.572l3.6 6.822a2.2 2.2 0 0 0 1.571 1.141l7.601 1.315-5.376 5.532a2.2 2.2 0 0 0-.6 1.846l1.098 7.635-6.922-3.404a2.199 2.199 0 0 0-1.941 0l-6.922 3.404 1.098-7.635a2.2 2.2 0 0 0-.6-1.846L3.231 11.85l7.601-1.315a2.202 2.202 0 0 0 1.571-1.141zm16.635 2.185zM7.767 27.031z" style="fill:var(--color1, #f4f4f4);stroke:var(--color1, #f4f4f4)"/>
</symbol>

  </defs>
</svg>
