<svg aria-hidden="true" style="position: absolute; width: 0; height: 0; overflow: hidden;" version="1.1" xmlns="http://www.w3.org/2000/svg" xmlns:xlink="http://www.w3.org/1999/xlink">
  <defs>
   
<symbol id="icon-heart-circle" viewBox="0 0 32 32">
<path d="M15.991 7.561c-2.559-3.022-6.827-3.834-10.033-1.068s-3.658 7.393-1.14 10.665c1.613 2.096 5.743 5.983 8.505 8.506 0.918 0.839 1.376 1.258 1.926 1.426 0.472 0.145 1.012 0.145 1.485 0 0.55-0.168 1.008-0.587 1.926-1.426 2.761-2.524 6.892-6.41 8.505-8.507 2.518-3.272 2.122-7.928-1.14-10.665s-7.474-1.954-10.033 1.068z"></path>
</symbol>

<symbol id="icon-four" viewBox="0 0 23 32">
<path fill="#fff" d="M13.815 32v-4.943H0v-5.606L10.019.221h6.886L6.886 21.451h6.93v-7.945h6.091v7.945h2.825v5.606h-2.825V32h-6.091z" style="fill:var(--color1, #fff)"/>
</symbol>

<symbol id="icon-shape-pc" viewBox="0 0 28 32">
<path fill="#fff" d="M.093 6.19C-.39 2.394 3.064-.717 6.789.159L24.017 4.21a5.484 5.484 0 0 1 4.035 6.784l-2.176 7.961a11.93 11.93 0 0 0-.422 3.144v6.182c0 3.89-3.937 6.543-7.543 5.083L3.605 27.571A5.484 5.484 0 0 1 .19 22.149l.549-8.856c.056-.909.027-1.822-.088-2.725L.093 6.19z" opacity=".1" style="fill:var(--color1, #fff)"/>
</symbol>

<symbol id="icon-shape" viewBox="0 0 41 32">
<path fill="#fff" d="M.148 7.435C-.434 2.879 3.711-.858 8.183.191L36.015 6.72a6.585 6.585 0 0 1 4.847 8.15l-3.027 11.048a29.49 29.49 0 0 0-1.048 7.794v9.07c0 4.668-4.723 7.853-9.051 6.105L4.568 39.528a6.583 6.583 0 0 1-4.105-6.513l.755-12.158c.14-2.254.067-4.516-.219-6.756L.148 7.436z" opacity=".1" style="fill:var(--color1, #fff)"/>
</symbol>

<symbol id="icon-x-red" viewBox="0 0 32 32">
<path fill="none" stroke="#ef2447" stroke-linecap="round" stroke-linejoin="round" stroke-width="3" d="M24 8 8 24M8 8l16 16" style="stroke: #ef2447"/>
</symbol>

<symbol id="icon-check" viewBox="0 0 32 32">
<path fill="none" stroke="#08aa83" stroke-linecap="round" stroke-linejoin="round" stroke-width="2.667" d="M26.667 9.333 12 24l-6.667-6.667" style="stroke: #08aa83"/>
</symbol>

<symbol id="icon-eye" viewBox="0 0 32 32">
<path fill="none" stroke="#f6b83d" stroke-linecap="round" stroke-linejoin="round" stroke-width="2.909" d="M1.332 16S6.665 5.333 15.999 5.333 30.666 16 30.666 16s-5.333 10.667-14.667 10.667C6.666 26.667 1.332 16 1.332 16z" style="stroke:var(--color1, #f6b83d)"/>
<path fill="none" stroke="#f6b83d" stroke-linecap="round" stroke-linejoin="round" stroke-width="2.909" d="M16 20a4 4 0 1 0 0-8 4 4 0 0 0 0 8z" style="stroke:var(--color1, #f6b83d)"/>
</symbol>
<symbol id="icon-eye-off" viewBox="0 0 32 32">
<path fill="none" stroke="#f6b83d" stroke-linecap="round" stroke-linejoin="round" stroke-width="2.667" d="M23.92 23.92A13.43 13.43 0 0 1 16 26.667C6.667 26.667 1.333 16 1.333 16A24.605 24.605 0 0 1 8.08 8.08m5.12-2.427a12.161 12.161 0 0 1 2.8-.32C25.333 5.333 30.667 16 30.667 16a24.646 24.646 0 0 1-2.88 4.253m-8.96-1.426a4.01 4.01 0 0 1-2.855 1.273 3.987 3.987 0 0 1-3.779-2.502 3.995 3.995 0 0 1 .983-4.424M1.333 1.333l29.333 29.333" style="stroke:var(--color1, #f6b83d)"/>
</symbol>

  </defs>
</svg>
